<?xml version="1.0" encoding="UTF-8"?>
<svg width="40px" height="40px" viewBox="0 0 40 40" version="1.1" xmlns="http://www.w3.org/2000/svg" xmlns:xlink="http://www.w3.org/1999/xlink">
    <!-- Generator: Sketch 45.1 (43504) - http://www.bohemiancoding.com/sketch -->
    <title>Group 17</title>
    <desc>Created with Sketch.</desc>
    <defs></defs>
    <g id="атрибуты" stroke="none" stroke-width="1" fill="none" fill-rule="evenodd">
        <g id="12+" transform="translate(-110.000000, -39.000000)">
            <g id="Group">
                <path d="M120.526316,9 L5,9 L5,9 C2.23857625,9 -1.45490316e-14,11.2385763 -1.42108547e-14,14 L-1.15463195e-14,165 C-1.12081426e-14,167.761424 2.23857625,170 5,170 L5,170 L255,170 C257.761424,170 260,167.761424 260,165 L260,14 C260,11.2385763 257.761424,9 255,9 L139,9 L130,0 L120.526316,9 Z" id="Combined-Shape" fill="#FFFFFF"></path>
                <g id="Group-17" transform="translate(110.000000, 39.000000)">
                    <rect id="Rectangle-16-Copy" stroke="#000000" stroke-width="2" x="1" y="1" width="38" height="38" rx="19"></rect>
                    <path d="M12.314,25 L14.29,25 L14.29,15.835 L12.925,15.835 L10.312,16.615 L10.728,18.253 L12.314,17.863 L12.314,25 Z M16.123,25 L22.857,25 L22.857,23.271 L18.892,23.271 L20.374,22.127 C21.986,20.879 22.766,20.125 22.766,18.604 C22.766,16.875 21.518,15.77 19.633,15.77 C18.008,15.77 17.137,16.433 16.24,17.655 L17.644,18.786 C18.32,17.954 18.801,17.564 19.503,17.564 C20.218,17.564 20.725,17.98 20.725,18.747 C20.725,19.501 20.283,19.995 19.152,20.931 L16.123,23.414 L16.123,25 Z M26.822,23.661 L28.668,23.661 L28.668,21.321 L31.021,21.321 L31.021,19.527 L28.668,19.527 L28.668,17.187 L26.822,17.187 L26.822,19.527 L24.469,19.527 L24.469,21.321 L26.822,21.321 L26.822,23.661 Z" id="12+" fill="#000000"></path>
                </g>
            </g>
        </g>
    </g>
</svg>